<?xml version="1.0" encoding="UTF-8"?>
<svg xmlns="http://www.w3.org/2000/svg" id="Layer_1" data-name="Layer 1" viewBox="0 0 24 24">
  <path d="M21.746,6.701c-.138-.292-.407-.5-.725-.558-.084-.015-1.129-.203-2.747-.389-.057-2.074-.647-3.587-.673-3.653-.122-.31-.392-.538-.717-.609-.093-.02-2.29-.492-4.885-.492s-4.792,.472-4.884,.492c-.327,.071-.597,.301-.719,.612-.026,.067-.614,1.592-.672,3.65-1.616,.185-2.661,.373-2.746,.389-.319,.058-.59,.268-.727,.562-.051,.109-1.243,2.708-1.243,6.157,0,3.479,1.194,6.053,1.245,6.161,.138,.292,.408,.5,.726,.558,.049,.009,1.169,.211,2.921,.407,.194,1.126,.479,1.863,.497,1.909,.123,.312,.393,.541,.719,.612,.093,.02,2.296,.491,4.884,.491s4.792-.471,4.884-.491c.326-.071,.595-.299,.718-.608,.018-.046,.305-.781,.5-1.913,1.751-.195,2.871-.398,2.92-.406,.318-.058,.59-.268,.727-.562,.051-.109,1.243-2.708,1.243-6.157,0-3.479-1.194-6.053-1.245-6.161ZM8.098,3.342c.774-.132,2.264-.342,3.902-.342s3.128,.21,3.902,.342c.135,.481,.313,1.27,.363,2.217-1.278-.102-2.734-.177-4.265-.177s-2.987,.075-4.266,.177c.051-.943,.229-1.734,.364-2.217Zm7.805,17.316c-.774,.132-2.267,.342-3.903,.342s-3.126-.21-3.902-.342c-.159-.569-.377-1.563-.377-2.727,0-.664,.069-1.268,.158-1.766h8.243c.088,.5,.158,1.104,.158,1.766,0,1.173-.218,2.163-.376,2.727Zm4.221-2.957c-.414,.065-1.845,.237-1.845,.229,0-1.251-.208-2.33-.383-3.014-.113-.442-.512-.752-.969-.752H7.071c-.457,0-.855,.31-.969,.752-.174,.681-.382,1.757-.382,3.014,0,.008-1.434-.165-1.848-.23-.304-.814-.863-2.616-.863-4.839,0-2.191,.563-4.015,.867-4.839,1.248-.195,4.509-.641,8.125-.641s6.885,.447,8.128,.641c.304,.814,.863,2.615,.863,4.839,0,2.191-.563,4.016-.867,4.84Z"/>
  <path d="M17.279,10.346h-2.061c-.553,0-1,.448-1,1s.447,1,1,1h2.061c.553,0,1-.448,1-1s-.447-1-1-1Z"/>
</svg>
