<svg id="Layer_1" viewBox="0 0 24 24" xmlns="http://www.w3.org/2000/svg" data-name="Layer 1"><path d="m8 12c3.309 0 6-2.691 6-6s-2.691-6-6-6-6 2.691-6 6 2.691 6 6 6zm0-9c1.654 0 3 1.346 3 3s-1.346 3-3 3-3-1.346-3-3 1.346-3 3-3zm2 12.5c0 .829-.672 1.5-1.5 1.5-3.032 0-5.5 2.467-5.5 5.5 0 .829-.672 1.5-1.5 1.5s-1.5-.671-1.5-1.5c0-4.687 3.813-8.5 8.5-8.5.828 0 1.5.671 1.5 1.5zm8 7c0 .829-.672 1.5-1.5 1.5h-1c-1.93 0-3.5-1.57-3.5-3.5v-6c0-1.93 1.57-3.5 3.5-3.5h1c.828 0 1.5.671 1.5 1.5s-.672 1.5-1.5 1.5h-1c-.275 0-.5.224-.5.5v6c0 .276.225.5.5.5h1c.828 0 1.5.671 1.5 1.5zm5.479-3.816-2.738 2.414c-.677.597-1.741.116-1.741-.786v-1.312h-1.5c-.828 0-1.5-.671-1.5-1.5s.672-1.5 1.5-1.5h1.5v-1.194c0-.902 1.064-1.383 1.741-.786l2.738 2.414c.695.601.695 1.649 0 2.25z"/></svg>